<svg xmlns="http://www.w3.org/2000/svg" viewBox="0 0 14 21.5"><g id="Layer_7" data-name="Layer 7"><path d="M1.19,9C2,4.43,4.77.83,7,.83H7c1.45,0,3.2,1.62,4.42,4h0L11,6.29,8.81,4.67,6.87,8.55,5.1,6.49,3.25,10.23,1.19,9Z" style="fill:none;stroke:#FFF;stroke-linecap:round;stroke-linejoin:round;stroke-width:1.5px"/><path d="M1.19,11.56l2.06,1.27,1.86-.71L7,15.34l2.51-2.66L11,14.73l1.92-1.66h0c0,.28.1.52.1.8,0,4.19-2.84,6.27-6,6.27H7c-3.15,0-6-2.08-6-6.27a14.6,14.6,0,0,1,.19-2.31Z" style="fill:none;stroke:#FFF;stroke-linecap:round;stroke-linejoin:round;stroke-width:1.5px"/></g></svg>